<?xml version="1.0" encoding="UTF-8"?>
<!-- Generator: Adobe Illustrator 17.1.0, SVG Export Plug-In . SVG Version: 6.00 Build 0)  -->
<!DOCTYPE svg PUBLIC "-//W3C//DTD SVG 1.1//EN" "http://www.w3.org/Graphics/SVG/1.1/DTD/svg11.dtd">
<svg version="1.1" id="Layer_1" xmlns="http://www.w3.org/2000/svg" xmlns:xlink="http://www.w3.org/1999/xlink" x="0px" y="0px" viewBox="0 0 128 101.524" enable-background="new 0 0 128 101.524" xml:space="preserve">
<g>
	<g>
		<path fill="#F68B33" d="M88.999,55.537c0.079-1.018,0.12-2.047,0.12-3.086c0-21.79-17.666-39.455-39.456-39.455    c-5.387,0-10.522,1.081-15.201,3.036c-0.321,6.176-4.407,11.788-10.653,13.75c-2.279,0.716-4.599,0.867-6.812,0.535    c-4.285,6.312-6.79,13.93-6.79,22.134c0,21.791,17.665,39.456,39.456,39.456c10.113,0,19.336-3.807,26.319-10.064    C73.869,71.126,79.269,60.32,88.999,55.537z"/>
		<path fill="#EF4638" d="M34.463,16.033c0.092-1.764-0.122-3.574-0.682-5.357C31.26,2.647,22.703-1.819,14.676,0.705    C6.646,3.229,2.181,11.782,4.705,19.81c1.806,5.751,6.707,9.672,12.293,10.508C21.28,24.01,27.343,19.008,34.463,16.033z"/>
		<path fill="#F68B33" d="M23.81,29.783c6.246-1.962,10.332-7.573,10.653-13.75c-7.12,2.975-13.182,7.977-17.465,14.285    C19.211,30.65,21.532,30.498,23.81,29.783z"/>
		<path fill="#EE2D29" d="M23.81,29.783c6.246-1.962,10.332-7.573,10.653-13.75c-7.12,2.975-13.182,7.977-17.465,14.285    C19.211,30.65,21.532,30.498,23.81,29.783z"/>
		<path fill="#F26722" d="M122.725,69.964c-4.003-12.728-17.557-19.802-30.282-15.804c-1.2,0.377-2.349,0.839-3.444,1.377    c-0.807,10.432-5.672,19.725-13.017,26.306c0.171,0.867,0.386,1.734,0.658,2.596c4,12.724,17.557,19.797,30.278,15.797    C119.646,96.243,126.719,82.687,122.725,69.964z"/>
		<path fill="#EF4423" d="M88.999,55.537c-9.731,4.783-15.13,15.588-13.017,26.306C83.328,75.262,88.192,65.969,88.999,55.537z"/>
	</g>
	<g>
		<path fill="#FFFFFF" d="M29.446,61.157h1.378l4.012,6.815v-6.815h0.906v8.737h-0.749l-4.64-7.734v7.734h-0.906V61.157z"/>
		<path fill="#FFFFFF" d="M38.208,63.574h0.81v0.954c0.676-0.713,1.329-1.063,2.091-1.063c1.039,0,1.643,0.628,1.643,1.752v4.676    h-0.858v-4.35c0-0.906-0.266-1.317-1.015-1.317c-0.628,0-1.22,0.315-1.8,0.955v4.713h-0.87V63.574z"/>
		<path fill="#FFFFFF" d="M46.245,69.99c-1.028,0-1.741-0.713-1.741-1.74c0-1.39,1.209-2.079,3.782-2.574v-0.459    c0-0.568-0.508-0.991-1.268-0.991c-0.677,0-1.221,0.338-1.547,0.991l-0.762-0.411c0.471-0.894,1.269-1.341,2.356-1.341    c1.33,0,2.115,0.676,2.115,1.872v3.529c0,0.338,0.048,0.652,0.133,0.931v0.097h-0.967l-0.097-0.858    C47.67,69.664,47.005,69.99,46.245,69.99z M48.286,66.499c-1.97,0.399-2.912,0.87-2.912,1.764c0,0.568,0.387,0.942,1.027,0.942    c0.556,0,1.16-0.326,1.885-0.967V66.499z"/>
		<path fill="#FFFFFF" d="M51.369,63.574h0.81v0.954c0.676-0.725,1.28-1.063,2.066-1.063c0.846,0,1.317,0.435,1.523,1.063    c0.677-0.725,1.305-1.063,2.091-1.063c1.027,0,1.619,0.628,1.619,1.752v4.676h-0.87v-4.398c0-0.87-0.266-1.269-0.991-1.269    c-0.64,0-1.208,0.315-1.776,0.955v4.713h-0.834V65.52c0-0.882-0.278-1.293-1.003-1.293c-0.652,0-1.184,0.315-1.764,0.955v4.713    h-0.87V63.574z"/>
		<path fill="#FFFFFF" d="M66.233,67.924c0,0.652,0,1.305,0.085,1.97h-0.677l-0.205-0.797c-0.472,0.628-0.991,0.894-1.765,0.894    c-1.547,0-2.489-1.184-2.489-3.287c0-2.09,0.93-3.238,2.537-3.238c0.749,0,1.293,0.278,1.644,0.834v-3.142h0.87V67.924z     M63.719,64.19c-1.003,0-1.631,0.858-1.631,2.453c0,1.74,0.568,2.61,1.728,2.61c0.628,0,1.159-0.314,1.547-0.943v-3.154    C64.916,64.505,64.396,64.19,63.719,64.19z"/>
		<path fill="#FFFFFF" d="M68.505,61.157h1.039v1.064h-1.039V61.157z M68.578,63.574h0.895v6.32h-0.895V63.574z"/>
	</g>
	<g>
		<g>
			<path fill="#FFFFFF" d="M13.606,12.052h-1.95v-0.638h4.657v0.638h-1.95v6.042h-0.757V12.052z"/>
			<path fill="#FFFFFF" d="M17.285,11.414h0.665v2.56c0.527-0.545,1.016-0.794,1.636-0.794c0.832,0,1.303,0.48,1.303,1.339v3.576     h-0.656v-3.326c0-0.693-0.213-1.006-0.822-1.006c-0.517,0-0.998,0.24-1.46,0.729v3.604h-0.665V11.414z"/>
			<path fill="#FFFFFF" d="M25.833,17.041c-0.379,0.776-1.007,1.137-1.931,1.137c-1.247,0-1.94-0.859-1.94-2.504     c0-1.589,0.739-2.494,1.885-2.494c1.173,0,1.885,0.868,1.885,2.43c0,0.065,0,0.129,0,0.203h-3.077c0,0.055,0,0.102,0,0.157     c0,1.026,0.536,1.635,1.312,1.635c0.601,0,1.09-0.305,1.377-0.869L25.833,17.041z M25.02,15.239     c-0.018-0.952-0.48-1.487-1.164-1.487c-0.712,0-1.155,0.527-1.192,1.487H25.02z"/>
		</g>
	</g>
	<g>
		<g>
			<path fill="#FFFFFF" d="M87.433,78.819c0.333,1.19,1.203,1.906,2.253,1.906c1.19,0,1.932-0.652,1.932-1.613     c0-0.575-0.204-0.998-0.627-1.279c-0.601-0.41-1.357-0.614-2.15-0.921c-1.433-0.563-2.124-1.19-2.124-2.393     c0-1.485,1.062-2.47,2.713-2.47c1.433,0,2.457,0.794,2.892,2.265L91.4,74.583c-0.307-1.1-1.037-1.676-2.073-1.676     c-0.998,0-1.625,0.589-1.625,1.51c0,0.449,0.205,0.807,0.601,1.126c0.397,0.308,1.088,0.512,1.971,0.845     c1.587,0.601,2.329,1.228,2.329,2.661c0,1.523-1.113,2.56-2.867,2.56c-1.651,0-2.764-0.832-3.276-2.47L87.433,78.819z"/>
			<path fill="#FFFFFF" d="M94.24,72.203h0.921v3.545c0.73-0.755,1.408-1.101,2.266-1.101c1.152,0,1.804,0.666,1.804,1.856v4.952     h-0.908v-4.606c0-0.96-0.294-1.395-1.139-1.395c-0.717,0-1.382,0.333-2.022,1.01v4.991H94.24V72.203z"/>
			<path fill="#FFFFFF" d="M103.454,74.647c1.741,0,2.79,1.228,2.79,3.455c0,2.226-1.049,3.467-2.79,3.467     c-1.74,0-2.789-1.241-2.789-3.467C100.664,75.876,101.713,74.647,103.454,74.647z M103.454,80.79c1.164,0,1.83-0.921,1.83-2.675     c0-1.766-0.653-2.675-1.83-2.675c-1.178,0-1.843,0.909-1.843,2.662C101.611,79.868,102.276,80.79,103.454,80.79z"/>
			<path fill="#FFFFFF" d="M106.947,74.763h0.908l1.523,5.604l1.549-5.604h0.806l1.548,5.604l1.523-5.604h0.896l-1.842,6.692h-1.14     l-1.394-5.016l-1.395,5.016h-1.126L106.947,74.763z"/>
		</g>
	</g>
	<g>
		<g>
			<g>
				<path fill="#FFFFFF" d="M28.815,51.536c1.04-8.518,8.307-14.932,9.662-23.219c0.134-0.818-1.116-1.168-1.25-0.345      c-1.372,8.387-8.652,14.915-9.708,23.564C27.417,52.365,28.715,52.355,28.815,51.536L28.815,51.536z"/>
			</g>
		</g>
		<g>
			<g>
				<path fill="#FFFFFF" d="M43.177,33.07c-1.453,1.766-3.387,3.046-5.325,4.221c-0.962,0.583-3.276,2.323-4.444,2.182      c-0.829-0.1-0.819,1.198,0,1.297c1.268,0.153,3.206-1.287,4.223-1.852c2.335-1.296,4.751-2.849,6.464-4.931      C44.621,33.347,43.709,32.424,43.177,33.07L43.177,33.07z"/>
			</g>
		</g>
		<g>
			<g>
				<path fill="#FFFFFF" d="M32.73,41.648c5.63,2.726,8.033,7.869,9.105,13.922c0.146,0.822,1.395,0.473,1.25-0.345      c-1.137-6.42-3.992-11.932-9.701-14.697C32.636,40.166,31.978,41.284,32.73,41.648L32.73,41.648z"/>
			</g>
		</g>
		<g>
			<g>
				<path fill="#FFFFFF" d="M40.789,50.043c1.434,0.22,2.539,0.175,3.913-0.292c1.396-0.475,2.45-1.689,3.569-2.597      c0.65-0.527-0.274-1.439-0.917-0.917c-0.942,0.764-1.839,1.839-2.997,2.263c-1.121,0.411-2.044,0.473-3.223,0.292      C40.316,48.667,39.964,49.916,40.789,50.043L40.789,50.043z"/>
			</g>
		</g>
		<g>
			<g>
				<path fill="#FFFFFF" d="M51.269,59.071c1.222-2.426,3.131-4.672,4.716-6.866c0.858-1.187,1.709-2.407,2.71-3.48      c0.524-0.562,2.383-0.445,3.255-0.57c1.082-0.155,1.954-0.713,2.767-1.394c0.642-0.538-0.281-1.45-0.917-0.917      c-1.835,1.538-4.171,0.463-5.886,1.833c-0.958,0.765-1.694,2.037-2.417,3.011c-1.814,2.443-3.973,5-5.347,7.728      C49.774,59.162,50.893,59.818,51.269,59.071L51.269,59.071z"/>
			</g>
		</g>
		<g>
			<g>
				<path fill="#FFFFFF" d="M58.936,48.395c1.063-1.617,1.955-3.397,2.748-5.159c0.34-0.756-0.777-1.416-1.12-0.655      c-0.793,1.762-1.685,3.542-2.748,5.159C57.356,48.441,58.479,49.09,58.936,48.395L58.936,48.395z"/>
			</g>
		</g>
		<g>
			<g>
				<path fill="#FFFFFF" d="M50.895,45.271c3.414-1.102,7.315-0.497,10.619-2.048c0.757-0.355,0.098-1.473-0.655-1.12      c-3.17,1.489-7.019,0.856-10.309,1.918C49.758,44.276,50.097,45.528,50.895,45.271L50.895,45.271z"/>
			</g>
		</g>
		<g>
			<g>
				<path fill="#FFFFFF" d="M51.717,44.554c1.337,2.418,0.212,5.592-2.681,6.042c-1.07,0.167-1.164-1.623-1.151-2.208      c0.014-0.625,0.322-1.225,0.727-1.675c0.631-0.701,1.276-0.963,2.083-1.383c0.742-0.386,0.086-1.505-0.655-1.12      c-1.49,0.775-2.718,1.499-3.266,3.199c-0.411,1.275-0.175,3.99,1.49,4.4c1.603,0.396,3.46-0.669,4.36-1.962      c1.298-1.864,1.29-3.998,0.212-5.949C52.432,43.167,51.312,43.822,51.717,44.554L51.717,44.554z"/>
			</g>
		</g>
		<g>
			<g>
				<path fill="#FFFFFF" d="M64.343,45.288c-1.075,1.123-1.716,3.018-1.067,4.495c1.156,2.632,4.059,2.544,6.038,0.97      c0.931-0.74,1.607-1.765,2.05-2.855c0.278-0.684,0.55-2.285-0.193-2.783c-1.892-1.271-4.632-1.706-6.423-0.052      c-0.616,0.568,0.304,1.483,0.917,0.917c1.22-1.126,3.054-0.738,4.391-0.036c1.208,0.634-0.885,3.167-1.424,3.685      c-1.417,1.361-4.131,1.39-4.32-1.071c-0.061-0.799,0.397-1.779,0.947-2.354C65.838,45.601,64.922,44.683,64.343,45.288      L64.343,45.288z"/>
			</g>
		</g>
	</g>
	<g>
		<g>
			<path fill="#FFFFFF" d="M66.624,39.292c0.009-0.857-0.181-1.678-0.634-2.411c-0.247-0.399-0.588-0.689-0.893-1.034     c-0.306,0.306-0.611,0.611-0.917,0.917c0.337,0.331,0.859,0.484,1.296,0.627c0.672,0.221,1.429,0.369,2.136,0.281     c0.819-0.101,0.829-1.399,0-1.297c-0.513,0.064-1.001-0.019-1.497-0.148c-0.234-0.061-0.464-0.141-0.69-0.226     c-0.086-0.032-0.168-0.074-0.25-0.115c-0.036-0.018-0.195-0.156-0.077-0.04c-0.602-0.591-1.467,0.295-0.917,0.917     c0.204,0.231,0.443,0.42,0.624,0.673c0.395,0.551,0.53,1.187,0.523,1.856C65.319,40.129,66.616,40.128,66.624,39.292     L66.624,39.292z"/>
		</g>
	</g>
</g>
</svg>